<svg xmlns="http://www.w3.org/2000/svg" width="1000" height="420" viewBox="0 0 1000 420"><rect width="1000" height="420" fill="#EEF1F6"/><svg x="40" y="40.0" width="320" height="320" viewBox="0 0 1024 1024"><defs><linearGradient id="ink" x1="0" y1="0" x2="1" y2="1"><stop stop-color="#22364F"/><stop offset="1" stop-color="#0D1729"/></linearGradient><linearGradient id="spectrum" gradientUnits="userSpaceOnUse" x1="224" y1="650" x2="800" y2="310"><stop stop-color="#427BFF"/><stop offset=".5" stop-color="#35BCEC"/><stop offset="1" stop-color="#69E4CA"/></linearGradient><linearGradient id="perch"><stop stop-color="#517CAE"/><stop offset=".5" stop-color="#A2D8EB"/><stop offset="1" stop-color="#517CAE"/></linearGradient></defs><defs><clipPath id="preview-mask"><rect x="32" y="32" width="960" height="960" rx="214"/></clipPath></defs><g clip-path="url(#preview-mask)"><rect width="1024" height="1024" fill="url(#ink)"/><rect x="208" y="712" width="608" height="24" rx="12" fill="url(#perch)"/><g fill="url(#spectrum)"><path d="M224 690 V552 A48 48 0 0 1 320 552 V690 Z"/><path d="M344 690 V432 A48 48 0 0 1 440 432 V690 Z"/><path d="M464 690 V320 A48 48 0 0 1 560 320 V690 Z"/><path d="M584 690 V432 A48 48 0 0 1 680 432 V690 Z"/><path d="M704 690 V552 A48 48 0 0 1 800 552 V690 Z"/></g></g></svg><text x="200.0" y="390" text-anchor="middle" font-family="Helvetica" font-size="16" fill="#526079">320 px</text><svg x="410" y="136.0" width="128" height="128" viewBox="0 0 1024 1024"><defs><linearGradient id="ink" x1="0" y1="0" x2="1" y2="1"><stop stop-color="#22364F"/><stop offset="1" stop-color="#0D1729"/></linearGradient><linearGradient id="spectrum" gradientUnits="userSpaceOnUse" x1="224" y1="650" x2="800" y2="310"><stop stop-color="#427BFF"/><stop offset=".5" stop-color="#35BCEC"/><stop offset="1" stop-color="#69E4CA"/></linearGradient><linearGradient id="perch"><stop stop-color="#517CAE"/><stop offset=".5" stop-color="#A2D8EB"/><stop offset="1" stop-color="#517CAE"/></linearGradient></defs><defs><clipPath id="preview-mask"><rect x="32" y="32" width="960" height="960" rx="214"/></clipPath></defs><g clip-path="url(#preview-mask)"><rect width="1024" height="1024" fill="url(#ink)"/><rect x="208" y="712" width="608" height="24" rx="12" fill="url(#perch)"/><g fill="url(#spectrum)"><path d="M224 690 V552 A48 48 0 0 1 320 552 V690 Z"/><path d="M344 690 V432 A48 48 0 0 1 440 432 V690 Z"/><path d="M464 690 V320 A48 48 0 0 1 560 320 V690 Z"/><path d="M584 690 V432 A48 48 0 0 1 680 432 V690 Z"/><path d="M704 690 V552 A48 48 0 0 1 800 552 V690 Z"/></g></g></svg><text x="474.0" y="390" text-anchor="middle" font-family="Helvetica" font-size="16" fill="#526079">128 px</text><svg x="590" y="168.0" width="64" height="64" viewBox="0 0 1024 1024"><defs><linearGradient id="ink" x1="0" y1="0" x2="1" y2="1"><stop stop-color="#22364F"/><stop offset="1" stop-color="#0D1729"/></linearGradient><linearGradient id="spectrum" gradientUnits="userSpaceOnUse" x1="224" y1="650" x2="800" y2="310"><stop stop-color="#427BFF"/><stop offset=".5" stop-color="#35BCEC"/><stop offset="1" stop-color="#69E4CA"/></linearGradient><linearGradient id="perch"><stop stop-color="#517CAE"/><stop offset=".5" stop-color="#A2D8EB"/><stop offset="1" stop-color="#517CAE"/></linearGradient></defs><defs><clipPath id="preview-mask"><rect x="32" y="32" width="960" height="960" rx="214"/></clipPath></defs><g clip-path="url(#preview-mask)"><rect width="1024" height="1024" fill="url(#ink)"/><rect x="208" y="712" width="608" height="24" rx="12" fill="url(#perch)"/><g fill="url(#spectrum)"><path d="M224 690 V552 A48 48 0 0 1 320 552 V690 Z"/><path d="M344 690 V432 A48 48 0 0 1 440 432 V690 Z"/><path d="M464 690 V320 A48 48 0 0 1 560 320 V690 Z"/><path d="M584 690 V432 A48 48 0 0 1 680 432 V690 Z"/><path d="M704 690 V552 A48 48 0 0 1 800 552 V690 Z"/></g></g></svg><text x="622.0" y="390" text-anchor="middle" font-family="Helvetica" font-size="16" fill="#526079">64 px</text><svg x="710" y="184.0" width="32" height="32" viewBox="0 0 1024 1024"><defs><linearGradient id="ink" x1="0" y1="0" x2="1" y2="1"><stop stop-color="#22364F"/><stop offset="1" stop-color="#0D1729"/></linearGradient><linearGradient id="spectrum" gradientUnits="userSpaceOnUse" x1="224" y1="650" x2="800" y2="310"><stop stop-color="#427BFF"/><stop offset=".5" stop-color="#35BCEC"/><stop offset="1" stop-color="#69E4CA"/></linearGradient><linearGradient id="perch"><stop stop-color="#517CAE"/><stop offset=".5" stop-color="#A2D8EB"/><stop offset="1" stop-color="#517CAE"/></linearGradient></defs><defs><clipPath id="preview-mask"><rect x="32" y="32" width="960" height="960" rx="214"/></clipPath></defs><g clip-path="url(#preview-mask)"><rect width="1024" height="1024" fill="url(#ink)"/><rect x="208" y="712" width="608" height="24" rx="12" fill="url(#perch)"/><g fill="url(#spectrum)"><path d="M224 690 V552 A48 48 0 0 1 320 552 V690 Z"/><path d="M344 690 V432 A48 48 0 0 1 440 432 V690 Z"/><path d="M464 690 V320 A48 48 0 0 1 560 320 V690 Z"/><path d="M584 690 V432 A48 48 0 0 1 680 432 V690 Z"/><path d="M704 690 V552 A48 48 0 0 1 800 552 V690 Z"/></g></g></svg><text x="726.0" y="390" text-anchor="middle" font-family="Helvetica" font-size="16" fill="#526079">32 px</text><svg x="820" y="192.0" width="16" height="16" viewBox="0 0 1024 1024"><defs><linearGradient id="ink" x1="0" y1="0" x2="1" y2="1"><stop stop-color="#22364F"/><stop offset="1" stop-color="#0D1729"/></linearGradient><linearGradient id="spectrum" gradientUnits="userSpaceOnUse" x1="224" y1="650" x2="800" y2="310"><stop stop-color="#427BFF"/><stop offset=".5" stop-color="#35BCEC"/><stop offset="1" stop-color="#69E4CA"/></linearGradient><linearGradient id="perch"><stop stop-color="#517CAE"/><stop offset=".5" stop-color="#A2D8EB"/><stop offset="1" stop-color="#517CAE"/></linearGradient></defs><defs><clipPath id="preview-mask"><rect x="32" y="32" width="960" height="960" rx="214"/></clipPath></defs><g clip-path="url(#preview-mask)"><rect width="1024" height="1024" fill="url(#ink)"/><rect x="208" y="712" width="608" height="24" rx="12" fill="url(#perch)"/><g fill="url(#spectrum)"><path d="M224 690 V552 A48 48 0 0 1 320 552 V690 Z"/><path d="M344 690 V432 A48 48 0 0 1 440 432 V690 Z"/><path d="M464 690 V320 A48 48 0 0 1 560 320 V690 Z"/><path d="M584 690 V432 A48 48 0 0 1 680 432 V690 Z"/><path d="M704 690 V552 A48 48 0 0 1 800 552 V690 Z"/></g></g></svg><text x="828.0" y="390" text-anchor="middle" font-family="Helvetica" font-size="16" fill="#526079">16 px</text></svg>